<svg width="50" height="50" viewBox="0 0 50 50" fill="none" xmlns="http://www.w3.org/2000/svg">
<circle cx="25" cy="25" r="25" fill="#F5FBFC"/>
<path d="M25.5 26.134C27.5711 26.134 29.25 24.7609 29.25 23.067C29.25 21.3732 27.5711 20 25.5 20C23.4289 20 21.75 21.3732 21.75 23.067C21.75 24.7609 23.4289 26.134 25.5 26.134Z" stroke="#08546C" stroke-width="3" stroke-linecap="round" stroke-linejoin="round"/>
<path d="M25.5 40.4466V26.1338" stroke="#08546C" stroke-width="3" stroke-linecap="round" stroke-linejoin="round"/>
<path d="M16.75 30.2234H13C13 32.9348 14.317 35.5352 16.6612 37.4524C19.0054 39.3697 22.1848 40.4468 25.5 40.4468C28.8152 40.4468 31.9946 39.3697 34.3388 37.4524C36.683 35.5352 38 32.9348 38 30.2234H34.25" stroke="#08546C" stroke-width="3" stroke-linecap="round" stroke-linejoin="round"/>
</svg>
