<svg width="50" height="50" viewBox="0 0 50 50" fill="none" xmlns="http://www.w3.org/2000/svg">
<circle cx="25" cy="25" r="24.5" fill="#F5FBFC" stroke="black"/>
<path d="M25.5 24.134C27.5711 24.134 29.25 22.7609 29.25 21.067C29.25 19.3732 27.5711 18 25.5 18C23.4289 18 21.75 19.3732 21.75 21.067C21.75 22.7609 23.4289 24.134 25.5 24.134Z" stroke="#08546C" stroke-width="3" stroke-linecap="round" stroke-linejoin="round"/>
<path d="M25.5 38.4469V24.1342" stroke="#08546C" stroke-width="3" stroke-linecap="round" stroke-linejoin="round"/>
<path d="M16.75 28.2234H13C13 30.9348 14.317 33.5352 16.6612 35.4524C19.0054 37.3697 22.1848 38.4468 25.5 38.4468C28.8152 38.4468 31.9946 37.3697 34.3388 35.4524C36.683 33.5352 38 30.9348 38 28.2234H34.25" stroke="#08546C" stroke-width="3" stroke-linecap="round" stroke-linejoin="round"/>
</svg>
